
<global>
amp_veltrack=0
master-volume=12.0
xf_cccurve=gain
xfin_hicc1=127
xfout_hicc1=127
xfout_locc1=127
</global>

<group>
ampeg_attack=0.01
ampeg_release=0.25
group_label=Sustain

<region>
hivel=127
key=A#2
loop_end=199214
loop_mode=loop_continuous
loop_start=75266
loop_xfade=23524
lovel=1
offset=7714
sample=Basses_Mmm_sustain_PP_A#2.opus
tune=-28
</region>

<region>
hivel=127
key=A#3
loop_end=199214
loop_mode=loop_continuous
loop_start=75266
loop_xfade=23524
lovel=1
offset=4387
sample=Basses_Mmm_sustain_PP_A#3.opus
tune=-27
</region>

<region>
hivel=127
key=A2
loop_end=199214
loop_mode=loop_continuous
loop_start=75266
loop_xfade=23524
lovel=1
offset=9383
sample=Basses_Mmm_sustain_PP_A2.opus
tune=-28
</region>

<region>
hivel=127
key=A3
loop_end=199214
loop_mode=loop_continuous
loop_start=75266
loop_xfade=23524
lovel=1
offset=10350
sample=Basses_Mmm_sustain_PP_A3.opus
tune=-43
</region>

<region>
hivel=127
key=B2
loop_end=201214
loop_mode=loop_continuous
loop_start=76021
loop_xfade=23760
lovel=1
offset=6076
sample=Basses_Mmm_sustain_PP_B2.opus
tune=-27
</region>

<region>
hivel=127
key=B3
loop_end=199214
loop_mode=loop_continuous
loop_start=75266
loop_xfade=23524
lovel=1
offset=2843
sample=Basses_Mmm_sustain_PP_B3.opus
tune=-15
</region>

<region>
hivel=127
key=C#3
loop_end=199214
loop_mode=loop_continuous
loop_start=75266
loop_xfade=23524
lovel=1
offset=6726
sample=Basses_Mmm_sustain_PP_C#3.opus
tune=-15
</region>

<region>
hivel=127
key=C#4
loop_end=199214
loop_mode=loop_continuous
loop_start=75266
loop_xfade=23524
lovel=1
offset=3105
sample=Basses_Mmm_sustain_PP_C#4.opus
tune=-3
</region>

<region>
hivel=127
key=C3
loop_end=199214
loop_mode=loop_continuous
loop_start=75266
loop_xfade=23524
lovel=1
offset=6637
sample=Basses_Mmm_sustain_PP_C3.opus
tune=-26
</region>

<region>
hikey=C4
hivel=127
lokey=C4
loop_end=199214
loop_mode=loop_continuous
loop_start=75266
loop_xfade=23524
lovel=1
offset=5842
sample=Basses_Mmm_sustain_PP_C4.opus
tune=+3
</region>

<region>
hivel=127
key=D#2
loop_end=201214
loop_mode=loop_continuous
loop_start=76021
loop_xfade=23760
lovel=1
offset=7848
sample=Basses_Mmm_sustain_PP_D#2.opus
tune=-5
</region>

<region>
hivel=127
key=D#3
loop_end=199214
loop_mode=loop_continuous
loop_start=75266
loop_xfade=23524
lovel=1
offset=8365
sample=Basses_Mmm_sustain_PP_D#3.opus
tune=-25
</region>

<region>
hivel=127
key=D#4
loop_end=199214
loop_mode=loop_continuous
loop_start=75266
loop_xfade=23524
lovel=1
offset=5673
sample=Basses_Mmm_sustain_PP_D#4.opus
tune=-14
</region>

<region>
hikey=D2
hivel=127
lokey=G1
loop_end=201214
loop_mode=loop_continuous
loop_start=76021
loop_xfade=23760
lovel=1
offset=8228
pitch_keycenter=D2
sample=Basses_Mmm_sustain_PP_D2.opus
tune=-25
</region>

<region>
hivel=127
key=D3
loop_end=199214
loop_mode=loop_continuous
loop_start=75266
loop_xfade=23524
lovel=1
offset=6554
sample=Basses_Mmm_sustain_PP_D3.opus
tune=-27
</region>

<region>
hivel=127
key=D4
loop_end=199214
loop_mode=loop_continuous
loop_start=75266
loop_xfade=23524
lovel=1
offset=6322
sample=Basses_Mmm_sustain_PP_D4.opus
tune=-11
</region>

<region>
hivel=127
key=E2
loop_end=201214
loop_mode=loop_continuous
loop_start=76021
loop_xfade=23760
lovel=1
offset=5426
sample=Basses_Mmm_sustain_PP_E2.opus
tune=-20
</region>

<region>
hivel=127
key=E3
loop_end=199214
loop_mode=loop_continuous
loop_start=75266
loop_xfade=23524
lovel=1
offset=5340
sample=Basses_Mmm_sustain_PP_E3.opus
tune=-27
</region>

<region>
hikey=G#4
hivel=127
lokey=E4
loop_end=199214
loop_mode=loop_continuous
loop_start=75266
loop_xfade=23524
lovel=1
offset=7054
pitch_keycenter=E4
sample=Basses_Mmm_sustain_PP_E4.opus
tune=-9
</region>

<region>
hivel=127
key=F#2
loop_end=201214
loop_mode=loop_continuous
loop_start=76021
loop_xfade=23760
lovel=1
offset=10174
sample=Basses_Mmm_sustain_PP_F#2.opus
tune=-9
</region>

<region>
hivel=127
key=F#3
loop_end=199214
loop_mode=loop_continuous
loop_start=75266
loop_xfade=23524
lovel=1
offset=7330
sample=Basses_Mmm_sustain_PP_F#3.opus
tune=-23
</region>

<region>
hivel=127
key=F2
loop_end=201214
loop_mode=loop_continuous
loop_start=76021
loop_xfade=23760
lovel=1
offset=9172
sample=Basses_Mmm_sustain_PP_F2.opus
tune=-23
</region>

<region>
hivel=127
key=F3
loop_end=199214
loop_mode=loop_continuous
loop_start=75266
loop_xfade=23524
lovel=1
offset=7519
sample=Basses_Mmm_sustain_PP_F3.opus
tune=-27
</region>

<region>
hivel=127
key=G#2
loop_end=199214
loop_mode=loop_continuous
loop_start=75266
loop_xfade=23524
lovel=1
sample=Basses_Mmm_sustain_PP_G#2.opus
tune=-14
</region>

<region>
hivel=127
key=G#3
loop_end=199214
loop_mode=loop_continuous
loop_start=75266
loop_xfade=23524
lovel=1
offset=5844
sample=Basses_Mmm_sustain_PP_G#3.opus
tune=-26
</region>

<region>
hivel=127
key=G2
loop_end=199214
loop_mode=loop_continuous
loop_start=75266
loop_xfade=23524
lovel=1
offset=4300
sample=Basses_Mmm_sustain_PP_G2.opus
tune=-21
</region>

<region>
hivel=127
key=G3
loop_end=199214
loop_mode=loop_continuous
loop_start=75266
loop_xfade=23524
lovel=1
offset=5945
sample=Basses_Mmm_sustain_PP_G3.opus
tune=-23
</region>
</group>

<group>
ampeg_attack=0.02
ampeg_release=3.5
group_label=Release
trigger=release

<region>
hivel=127
key=A#2
lovel=1
offset=192000
sample=Basses_Mmm_sustain_PP_A#2.opus
tune=-28
</region>

<region>
hivel=127
key=A#3
lovel=1
offset=192000
sample=Basses_Mmm_sustain_PP_A#3.opus
tune=-27
</region>

<region>
hivel=127
key=A2
lovel=1
offset=192000
sample=Basses_Mmm_sustain_PP_A2.opus
tune=-28
</region>

<region>
hivel=127
key=A3
lovel=1
offset=192000
sample=Basses_Mmm_sustain_PP_A3.opus
tune=-43
</region>

<region>
hivel=127
key=B2
lovel=1
offset=192000
sample=Basses_Mmm_sustain_PP_B2.opus
tune=-27
</region>

<region>
hivel=127
key=B3
lovel=1
offset=192000
sample=Basses_Mmm_sustain_PP_B3.opus
tune=-15
</region>

<region>
hivel=127
key=C#3
lovel=1
offset=192000
sample=Basses_Mmm_sustain_PP_C#3.opus
tune=-15
</region>

<region>
hivel=127
key=C#4
lovel=1
offset=192000
sample=Basses_Mmm_sustain_PP_C#4.opus
tune=-3
</region>

<region>
hivel=127
key=C3
lovel=1
offset=192000
sample=Basses_Mmm_sustain_PP_C3.opus
tune=-26
</region>

<region>
hikey=C4
hivel=127
lokey=C4
lovel=1
offset=192000
sample=Basses_Mmm_sustain_PP_C4.opus
tune=+3
</region>

<region>
hivel=127
key=D#2
lovel=1
offset=192000
sample=Basses_Mmm_sustain_PP_D#2.opus
tune=-5
</region>

<region>
hivel=127
key=D#3
lovel=1
offset=192000
sample=Basses_Mmm_sustain_PP_D#3.opus
tune=-25
</region>

<region>
hivel=127
key=D#4
lovel=1
offset=192000
sample=Basses_Mmm_sustain_PP_D#4.opus
tune=-14
</region>

<region>
hikey=D2
hivel=127
lokey=G1
lovel=1
offset=192000
pitch_keycenter=D2
sample=Basses_Mmm_sustain_PP_D2.opus
tune=-25
</region>

<region>
hivel=127
key=D3
lovel=1
offset=192000
sample=Basses_Mmm_sustain_PP_D3.opus
tune=-27
</region>

<region>
hivel=127
key=D4
lovel=1
offset=192000
sample=Basses_Mmm_sustain_PP_D4.opus
tune=-11
</region>

<region>
hivel=127
key=E2
lovel=1
offset=192000
sample=Basses_Mmm_sustain_PP_E2.opus
tune=-20
</region>

<region>
hivel=127
key=E3
lovel=1
offset=192000
sample=Basses_Mmm_sustain_PP_E3.opus
tune=-27
</region>

<region>
hikey=G#4
hivel=127
lokey=E4
lovel=1
offset=192000
pitch_keycenter=E4
sample=Basses_Mmm_sustain_PP_E4.opus
tune=-9
</region>

<region>
hivel=127
key=F#2
lovel=1
offset=192000
sample=Basses_Mmm_sustain_PP_F#2.opus
tune=-9
</region>

<region>
hivel=127
key=F#3
lovel=1
offset=192000
sample=Basses_Mmm_sustain_PP_F#3.opus
tune=-23
</region>

<region>
hivel=127
key=F2
lovel=1
offset=192000
sample=Basses_Mmm_sustain_PP_F2.opus
tune=-23
</region>

<region>
hivel=127
key=F3
lovel=1
offset=192000
sample=Basses_Mmm_sustain_PP_F3.opus
tune=-27
</region>

<region>
hivel=127
key=G#2
lovel=1
offset=192000
sample=Basses_Mmm_sustain_PP_G#2.opus
tune=-14
</region>

<region>
hivel=127
key=G#3
lovel=1
offset=192000
sample=Basses_Mmm_sustain_PP_G#3.opus
tune=-26
</region>

<region>
hivel=127
key=G2
lovel=1
offset=192000
sample=Basses_Mmm_sustain_PP_G2.opus
tune=-21
</region>

<region>
hivel=127
key=G3
lovel=1
offset=192000
sample=Basses_Mmm_sustain_PP_G3.opus
tune=-23
</region>
</group>